<svg width="109" height="106" viewBox="0 0 109 106" fill="none" xmlns="http://www.w3.org/2000/svg">
<g filter="url(#filter0_i_520_329)">
<circle cx="57.4998" cy="51.5" r="48.5" transform="rotate(90.5701 57.4998 51.5)" fill="#F0C134"/>
</g>
<g filter="url(#filter1_f_520_329)">
<path d="M57.3516 100.061C30.5672 99.7944 103.5 95.5 97.354 47.0831C97.354 9 31.5324 2.7992 58.3169 3.06574C85.1013 3.33227 106.598 25.2615 106.332 52.0459C106.065 78.8304 84.1361 100.327 57.3516 100.061Z" fill="#BF961C"/>
</g>
<path d="M52 34C52 39.5228 50.5376 44 47.5 44C44.4624 44 41 39.5228 41 34C41 28.4772 44.4624 24 47.5 24C50.5376 24 52 28.4772 52 34Z" fill="black"/>
<path d="M62 34C62 39.5228 63.4624 44 66.5 44C69.5376 44 73 39.5228 73 34C73 28.4772 69.5376 24 66.5 24C63.4624 24 62 28.4772 62 34Z" fill="black"/>
<g filter="url(#filter2_d_520_329)">
<path d="M29.1347 74.9219C39.3612 66.7858 64.9813 55.5456 85.6496 75.6737" stroke="black" stroke-width="3" stroke-linecap="round"/>
</g>
<g filter="url(#filter3_f_520_329)">
<path d="M12 47.5C13.1667 36.1667 24 4.5 65.5 6" stroke="white" stroke-width="3" stroke-linecap="round" stroke-linejoin="round"/>
</g>
<g filter="url(#filter4_f_520_329)">
<path d="M12 52C13.1667 63.3333 24 95 65.5 93.5" stroke="white" stroke-width="3" stroke-linecap="round" stroke-linejoin="round"/>
</g>
<g filter="url(#filter5_f_520_329)">
<ellipse cx="47" cy="28.5" rx="3" ry="3.5" fill="white"/>
</g>
<g filter="url(#filter6_f_520_329)">
<ellipse cx="67" cy="28.5" rx="3" ry="3.5" fill="white"/>
</g>
<defs>
<filter id="filter0_i_520_329" x="8.99951" y="2.99988" width="97.0005" height="107" filterUnits="userSpaceOnUse" color-interpolation-filters="sRGB">
<feFlood flood-opacity="0" result="BackgroundImageFix"/>
<feBlend mode="normal" in="SourceGraphic" in2="BackgroundImageFix" result="shape"/>
<feColorMatrix in="SourceAlpha" type="matrix" values="0 0 0 0 0 0 0 0 0 0 0 0 0 0 0 0 0 0 127 0" result="hardAlpha"/>
<feOffset dy="10"/>
<feGaussianBlur stdDeviation="5"/>
<feComposite in2="hardAlpha" operator="arithmetic" k2="-1" k3="1"/>
<feColorMatrix type="matrix" values="0 0 0 0 0 0 0 0 0 0 0 0 0 0 0 0 0 0 0.25 0"/>
<feBlend mode="normal" in2="shape" result="effect1_innerShadow_520_329"/>
</filter>
<filter id="filter1_f_520_329" x="49.418" y="1.05774" width="58.9165" height="101.006" filterUnits="userSpaceOnUse" color-interpolation-filters="sRGB">
<feFlood flood-opacity="0" result="BackgroundImageFix"/>
<feBlend mode="normal" in="SourceGraphic" in2="BackgroundImageFix" result="shape"/>
<feGaussianBlur stdDeviation="1" result="effect1_foregroundBlur_520_329"/>
</filter>
<filter id="filter2_d_520_329" x="23.6348" y="62.8579" width="67.5146" height="22.3158" filterUnits="userSpaceOnUse" color-interpolation-filters="sRGB">
<feFlood flood-opacity="0" result="BackgroundImageFix"/>
<feColorMatrix in="SourceAlpha" type="matrix" values="0 0 0 0 0 0 0 0 0 0 0 0 0 0 0 0 0 0 127 0" result="hardAlpha"/>
<feOffset dy="4"/>
<feGaussianBlur stdDeviation="2"/>
<feComposite in2="hardAlpha" operator="out"/>
<feColorMatrix type="matrix" values="0 0 0 0 0 0 0 0 0 0 0 0 0 0 0 0 0 0 0.25 0"/>
<feBlend mode="normal" in2="BackgroundImageFix" result="effect1_dropShadow_520_329"/>
<feBlend mode="normal" in="SourceGraphic" in2="effect1_dropShadow_520_329" result="shape"/>
</filter>
<filter id="filter3_f_520_329" x="6.5" y="0.448486" width="64.5" height="52.5516" filterUnits="userSpaceOnUse" color-interpolation-filters="sRGB">
<feFlood flood-opacity="0" result="BackgroundImageFix"/>
<feBlend mode="normal" in="SourceGraphic" in2="BackgroundImageFix" result="shape"/>
<feGaussianBlur stdDeviation="2" result="effect1_foregroundBlur_520_329"/>
</filter>
<filter id="filter4_f_520_329" x="0.5" y="40.4999" width="76.5" height="64.5516" filterUnits="userSpaceOnUse" color-interpolation-filters="sRGB">
<feFlood flood-opacity="0" result="BackgroundImageFix"/>
<feBlend mode="normal" in="SourceGraphic" in2="BackgroundImageFix" result="shape"/>
<feGaussianBlur stdDeviation="5" result="effect1_foregroundBlur_520_329"/>
</filter>
<filter id="filter5_f_520_329" x="40" y="21" width="14" height="15" filterUnits="userSpaceOnUse" color-interpolation-filters="sRGB">
<feFlood flood-opacity="0" result="BackgroundImageFix"/>
<feBlend mode="normal" in="SourceGraphic" in2="BackgroundImageFix" result="shape"/>
<feGaussianBlur stdDeviation="2" result="effect1_foregroundBlur_520_329"/>
</filter>
<filter id="filter6_f_520_329" x="60" y="21" width="14" height="15" filterUnits="userSpaceOnUse" color-interpolation-filters="sRGB">
<feFlood flood-opacity="0" result="BackgroundImageFix"/>
<feBlend mode="normal" in="SourceGraphic" in2="BackgroundImageFix" result="shape"/>
<feGaussianBlur stdDeviation="2" result="effect1_foregroundBlur_520_329"/>
</filter>
</defs>
</svg>
