<svg width="902" height="463" viewBox="0 0 902 463" fill="none" xmlns="http://www.w3.org/2000/svg">
<path d="M344.5 244C399 186.5 593.5 100.605 633.07 118.923C682.834 141.96 551.622 228.445 516.271 292.094C499.738 323.982 484.63 370.288 560.324 332.461C636.018 294.633 746.931 240.763 757.319 215.46" stroke="white" stroke-width="31" stroke-linecap="round"/>
<path d="M352.105 216.012C393.713 151.134 598.568 70.6114 634.332 87.1676C684.096 110.204 552.884 196.689 517.533 260.338C501 292.227 485.892 338.533 561.586 300.705C637.28 262.877 748.193 209.007 758.58 183.704" stroke="white" stroke-width="2" stroke-linecap="round"/>
<circle cx="32.1343" cy="32.1343" r="31.8787" transform="matrix(-1 0 0 1 796.269 170)" stroke="white" stroke-width="0.511111"/>
<circle cx="29.2779" cy="29.2779" r="29.0223" transform="matrix(-1 0 0 1 793.413 172.856)" stroke="white" stroke-width="0.511111"/>
<circle cx="17.8524" cy="17.8524" r="17.8524" transform="matrix(-1 0 0 1 781.987 184.282)" fill="#FF004D"/>
<path d="M15.7647 222.768C57.3723 157.889 262.227 77.3668 297.992 93.923C347.755 116.96 216.543 203.445 181.192 267.094C164.659 298.982 146.151 337.537 225.245 307.461C318.5 272 422 188.5 439.5 179.5" stroke="white" stroke-width="31" stroke-linecap="round"/>
<path d="M17.0267 191.012C58.6343 126.134 263.489 45.6114 299.254 62.1676C349.017 85.2042 217.805 171.689 182.454 235.338C165.921 267.227 150.813 313.533 226.507 275.705C302.201 237.877 428.612 197.803 439 172.5" stroke="white" stroke-width="2" stroke-linecap="round"/>
<path d="M748.535 208.418C749.549 190.835 780 183.5 786.056 208.418V267.325C786.713 243.198 824.277 241.704 825.606 268.619V281.807C827.972 254.08 863.803 258.476 863.803 281.807V293.134C866.845 264.9 900.648 266.929 902 294.994V413.037C901.099 427.915 886.451 458.618 835.07 462.405C805.549 465.673 742.586 457.062 726.901 396.469C720.366 380.182 703.307 344.262 687.352 330.872C683.746 325.349 679.983 313.153 693.774 308.555C702.563 306.188 725.82 306.256 748.535 325.461V208.418Z" fill="url(#paint0_linear_475_559)"/>
<defs>
<linearGradient id="paint0_linear_475_559" x1="793" y1="213" x2="793" y2="463" gradientUnits="userSpaceOnUse">
<stop stop-color="#FF8F20"/>
<stop offset="0.586254" stop-color="#FFB94C"/>
<stop offset="1" stop-color="#FF8F20"/>
</linearGradient>
</defs>
</svg>
