<svg width="477" height="250" viewBox="0 0 477 250" fill="none" xmlns="http://www.w3.org/2000/svg">
<path d="M471.038 202.381H477V214.286C473.434 214.286 469.511 214.286 465.075 214.286C451.91 214.286 441.225 224.952 441.225 238.095C441.225 242.452 441.225 246.488 441.225 250H35.775C35.775 246.488 35.775 242.452 35.775 238.095C35.775 224.952 25.0902 214.286 11.925 214.286C8.12092 214.286 3.98295 214.286 0 214.286V202.381H5.9625C9.2538 202.381 11.925 199.714 11.925 196.429C11.925 193.143 9.2538 190.476 5.9625 190.476H0V178.571H5.9625C9.2538 178.571 11.925 175.905 11.925 172.619C11.925 169.333 9.2538 166.667 5.9625 166.667H0V154.762H5.9625C9.2538 154.762 11.925 152.095 11.925 148.81C11.925 145.524 9.2538 142.857 5.9625 142.857H0V130.952H5.9625C9.2538 130.952 11.925 128.286 11.925 125C11.925 121.714 9.2538 119.048 5.9625 119.048H0V107.143H5.9625C9.2538 107.143 11.925 104.476 11.925 101.19C11.925 97.9048 9.2538 95.2381 5.9625 95.2381H0V83.3333H5.9625C9.2538 83.3333 11.925 80.6667 11.925 77.381C11.925 74.0952 9.2538 71.4286 5.9625 71.4286H0V59.5238H5.9625C9.2538 59.5238 11.925 56.8571 11.925 53.5714C11.925 50.2857 9.2538 47.619 5.9625 47.619H0V35.7143C3.56557 35.7143 7.4889 35.7143 11.925 35.7143C25.0902 35.7143 35.775 25.0476 35.775 11.9048C35.775 7.54762 35.775 3.5119 35.775 0H441.225C441.225 3.5119 441.225 7.54762 441.225 11.9048C441.225 25.0476 451.91 35.7143 465.075 35.7143C469.511 35.7143 473.434 35.7143 477 35.7143V47.619H471.038C467.746 47.619 465.075 50.2857 465.075 53.5714C465.075 56.8571 467.746 59.5238 471.038 59.5238H477V71.4286H471.038C467.746 71.4286 465.075 74.0952 465.075 77.381C465.075 80.6667 467.746 83.3333 471.038 83.3333H477V95.2381H471.038C467.746 95.2381 465.075 97.9048 465.075 101.19C465.075 104.476 467.746 107.143 471.038 107.143H477V119.048H471.038C467.746 119.048 465.075 121.714 465.075 125C465.075 128.286 467.746 130.952 471.038 130.952H477V142.857H471.038C467.746 142.857 465.075 145.524 465.075 148.81C465.075 152.095 467.746 154.762 471.038 154.762H477V166.667H471.038C467.746 166.667 465.075 169.333 465.075 172.619C465.075 175.905 467.746 178.571 471.038 178.571H477V190.476H471.038C467.746 190.476 465.075 193.143 465.075 196.429C465.075 199.714 467.746 202.381 471.038 202.381ZM429.3 59.5238C429.3 46.381 418.615 35.7143 405.45 35.7143H71.55C58.3848 35.7143 47.7 46.381 47.7 59.5238V190.476C47.7 203.619 58.3848 214.286 71.55 214.286H405.45C418.615 214.286 429.3 203.619 429.3 190.476V59.5238ZM405.45 202.381H71.55C64.9555 202.381 59.625 197.048 59.625 190.476V59.5238C59.625 52.9405 64.9555 47.619 71.55 47.619H405.45C412.033 47.619 417.375 52.9405 417.375 59.5238V190.476C417.375 197.048 412.033 202.381 405.45 202.381Z" fill="url(#paint0_linear_184_2)"/>
<rect x="49" y="37" width="379" height="176" rx="23" fill="url(#paint1_linear_184_2)"/>
<defs>
<linearGradient id="paint0_linear_184_2" x1="-58" y1="124" x2="508.5" y2="131" gradientUnits="userSpaceOnUse">
<stop offset="0.0878491" stop-color="#FFC806"/>
<stop offset="0.509181" stop-color="#FFEC92"/>
<stop offset="0.930654" stop-color="#FFCC15"/>
</linearGradient>
<linearGradient id="paint1_linear_184_2" x1="2.91614" y1="124.296" x2="453.009" y2="130.573" gradientUnits="userSpaceOnUse">
<stop offset="0.0878491" stop-color="#FFC806"/>
<stop offset="0.509181" stop-color="#FFEC92"/>
<stop offset="0.930654" stop-color="#FFCC15"/>
</linearGradient>
</defs>
</svg>
